<svg width="32" height="32" viewBox="0 0 32 32" fill="none" xmlns="http://www.w3.org/2000/svg">
<path d="M12 8.00008V3.66675C12 3.11446 12.4477 2.66675 13 2.66675H19C19.5523 2.66675 20 3.11446 20 3.66675V8.00008" stroke="url(#paint0_linear_826_39)" stroke-width="3" stroke-linecap="round" stroke-linejoin="round"/>
<circle cx="10.6668" cy="28.0001" r="1.33333" fill="url(#paint1_linear_826_39)"/>
<circle cx="21.3333" cy="28.0001" r="1.33333" fill="url(#paint2_linear_826_39)"/>
<rect x="8" y="8" width="16" height="18.6667" rx="1" stroke="url(#paint3_linear_826_39)" stroke-width="3"/>
<path d="M12 12V22.6667" stroke="url(#paint4_linear_826_39)" stroke-width="3" stroke-linecap="round" stroke-linejoin="round"/>
<path d="M16 12V22.6667" stroke="url(#paint5_linear_826_39)" stroke-width="3" stroke-linecap="round" stroke-linejoin="round"/>
<path d="M20 12V22.6667" stroke="url(#paint6_linear_826_39)" stroke-width="3" stroke-linecap="round" stroke-linejoin="round"/>
<defs>
<linearGradient id="paint0_linear_826_39" x1="12" y1="2.66675" x2="20.3818" y2="7.31105" gradientUnits="userSpaceOnUse">
<stop stop-color="#0039AC"/>
<stop offset="1" stop-color="#056BF0"/>
</linearGradient>
<linearGradient id="paint1_linear_826_39" x1="9.3335" y1="26.6667" x2="12.5468" y2="27.8537" gradientUnits="userSpaceOnUse">
<stop stop-color="#0039AC"/>
<stop offset="1" stop-color="#056BF0"/>
</linearGradient>
<linearGradient id="paint2_linear_826_39" x1="20" y1="26.6667" x2="23.2133" y2="27.8537" gradientUnits="userSpaceOnUse">
<stop stop-color="#0039AC"/>
<stop offset="1" stop-color="#056BF0"/>
</linearGradient>
<linearGradient id="paint3_linear_826_39" x1="8" y1="8" x2="27.9139" y2="14.3053" gradientUnits="userSpaceOnUse">
<stop stop-color="#0039AC"/>
<stop offset="1" stop-color="#056BF0"/>
</linearGradient>
<linearGradient id="paint4_linear_826_39" x1="12" y1="12" x2="13.3678" y2="12.0474" gradientUnits="userSpaceOnUse">
<stop stop-color="#0039AC"/>
<stop offset="1" stop-color="#056BF0"/>
</linearGradient>
<linearGradient id="paint5_linear_826_39" x1="16" y1="12" x2="17.3678" y2="12.0474" gradientUnits="userSpaceOnUse">
<stop stop-color="#0039AC"/>
<stop offset="1" stop-color="#056BF0"/>
</linearGradient>
<linearGradient id="paint6_linear_826_39" x1="20" y1="12" x2="21.3678" y2="12.0474" gradientUnits="userSpaceOnUse">
<stop stop-color="#0039AC"/>
<stop offset="1" stop-color="#056BF0"/>
</linearGradient>
</defs>
</svg>
