<svg width="130" height="155" viewBox="0 0 130 155" fill="none" xmlns="http://www.w3.org/2000/svg">
<path fill-rule="evenodd" clip-rule="evenodd" d="M77.3151 148.211L65.1914 153.189C22.6411 136.988 4.23992 113.536 1 79.4163C1.40785 53.5642 2.08415 39.0833 4.82851 13.3016C5.78679 9.89796 6.87542 8.61846 9.55035 7.17517C25.3434 3.77988 34.361 2.48874 50.7707 1.43162C62.8955 0.877624 69.156 0.835022 78.9741 1.43162C95.5051 2.45725 104.746 3.48688 120.322 6.91989C123.227 8.42532 124.498 9.67867 125.554 13.3016C127.876 39.1334 128.684 53.6099 129 79.4163C127.021 95.4202 124.57 103.747 116.494 116.813C106.802 129.434 100.349 134.846 87.9073 142.978L53.9611 76.353C55.9387 74.9196 57.2051 74.4126 59.8315 73.6727C61.8202 73.2004 63.1068 73.0601 64.7086 72.8853H64.7087C65.3162 72.819 65.9691 72.7478 66.7228 72.6516C72.2825 73.3698 75.5922 74.5217 81.3696 76.5323C81.9095 76.7202 82.471 76.9156 83.0578 77.1189C90.9947 79.9539 95.607 79.3838 104.498 76.353L116.366 69.3332L114.579 34.8718L104.625 39.3391C98.4355 41.0732 94.7652 41.4443 87.9073 41.1259C84.174 40.7272 82.1992 40.3215 78.8465 39.3391L66.7228 34.8718C62.212 33.1076 59.321 32.4468 53.8335 31.681C48.346 30.9152 35.8395 34.9995 35.8395 34.9995L33.1595 36.1482V28.4901C33.1595 28.4901 18.8664 17.2583 18.6112 17.1307C18.3559 17.003 16.8245 17.003 16.6969 17.1307C16.5693 17.2583 15.9312 18.0241 15.9312 18.1517V36.1482C17.6325 38.2376 18.9193 39.1417 20.7276 40.4123C21.2478 40.7777 21.811 41.1735 22.4397 41.6365L77.3151 148.211ZM113.784 23.6894C113.936 23.6062 114.089 23.5222 114.242 23.4375L114.534 23.2761L114.497 22.9448L113.997 18.4448L113.956 18.0772L113.593 18.0086C80.5606 11.7802 62.5166 11.0467 31.429 15.5051L30.1347 15.6907L31.2227 16.416L41.7226 23.416L41.9097 23.5407L42.1271 23.4836C49.0467 21.6646 53.6583 21.1026 60.0658 22.1548C60.7459 22.2904 61.4496 22.4422 62.1823 22.6104C64.0118 23.3354 65.7665 24.0047 67.4535 24.6194C82.0273 30.1953 91.2974 31.2295 100.289 29.1389C101.282 28.9129 102.265 28.6462 103.245 28.34C106.639 27.2986 110.072 25.8342 113.814 24.0229L113.784 23.6894ZM14.7165 48.8234L15.4467 50.2754L58.9467 136.775L59.6005 138.075L58.2857 137.452C52.6131 134.761 48.129 132.469 43.4704 129.164C38.8124 125.86 33.9957 121.554 27.6371 114.844L27.6118 114.817L27.5908 114.787C20.427 104.584 16.1661 95.9005 14.1967 86.0431C12.2293 76.1954 12.5572 65.2155 14.5043 50.4347L14.7165 48.8234ZM116.153 80.3171L115.996 81.5624C114.844 90.7156 113.132 97.7537 109.591 104.471C106.052 111.184 100.706 117.541 92.3416 125.365L91.8671 125.809L91.5596 125.237L70.0596 85.2367L69.4075 84.0237L70.686 84.5359C81.106 88.7109 88.7395 90.6952 95.4988 90.2315C102.234 89.7695 108.171 86.8704 115.183 81.1136L116.153 80.3171Z" fill="white"/>
<path d="M65.1914 153.189L64.8356 154.124L65.2053 154.264L65.5712 154.114L65.1914 153.189ZM77.3151 148.211L77.6949 149.136L78.703 148.722L78.2041 147.753L77.3151 148.211ZM1 79.4163L0.000124395 79.4005L-0.000747561 79.4558L0.00447828 79.5108L1 79.4163ZM4.82851 13.3016L3.86594 13.0306L3.84307 13.1119L3.83413 13.1958L4.82851 13.3016ZM9.55035 7.17517L9.34017 6.19751L9.20088 6.22745L9.0755 6.2951L9.55035 7.17517ZM50.7707 1.43162L50.725 0.432663L50.7157 0.433089L50.7064 0.43369L50.7707 1.43162ZM78.9741 1.43162L79.036 0.433539L79.0347 0.433462L78.9741 1.43162ZM120.322 6.91989L120.782 6.03203L120.666 5.9716L120.537 5.94333L120.322 6.91989ZM125.554 13.3016L126.55 13.2121L126.542 13.1152L126.514 13.0217L125.554 13.3016ZM129 79.4163L129.992 79.539L130.001 79.4718L130 79.404L129 79.4163ZM116.494 116.813L117.287 117.422L117.318 117.382L117.344 117.339L116.494 116.813ZM87.9073 142.978L87.0163 143.432L87.522 144.425L88.4544 143.815L87.9073 142.978ZM53.9611 76.353L53.3742 75.5434L52.6819 76.0452L53.0701 76.807L53.9611 76.353ZM59.8315 73.6727L59.6004 72.6998L59.5803 72.7046L59.5604 72.7102L59.8315 73.6727ZM64.7086 72.8853V71.8853H64.6542L64.6002 71.8912L64.7086 72.8853ZM64.7087 72.8853V73.8853H64.7631L64.8172 73.8794L64.7087 72.8853ZM66.7228 72.6516L66.8509 71.6599L66.7236 71.6434L66.5963 71.6597L66.7228 72.6516ZM81.3696 76.5323L81.0409 77.4768L81.3696 76.5323ZM83.0578 77.1189L83.3942 76.1771L83.3851 76.1739L83.0578 77.1189ZM104.498 76.353L104.82 77.2996L104.918 77.2663L105.007 77.2138L104.498 76.353ZM116.366 69.3332L116.875 70.1939L117.396 69.8858L117.365 69.2814L116.366 69.3332ZM114.579 34.8718L115.578 34.8201L115.502 33.3615L114.17 33.9595L114.579 34.8718ZM104.625 39.3391L104.895 40.302L104.967 40.2819L105.035 40.2514L104.625 39.3391ZM87.9073 41.1259L87.8011 42.1203L87.8309 42.1235L87.8609 42.1249L87.9073 41.1259ZM78.8465 39.3391L78.5007 40.2774L78.5326 40.2891L78.5653 40.2987L78.8465 39.3391ZM66.7228 34.8718L66.3586 35.8031L66.3678 35.8068L66.3771 35.8102L66.7228 34.8718ZM35.8395 34.9995L35.529 34.0489L35.4866 34.0628L35.4455 34.0804L35.8395 34.9995ZM33.1595 36.1482H32.1595V37.6648L33.5535 37.0673L33.1595 36.1482ZM33.1595 28.4901H34.1595V28.0041L33.7774 27.7038L33.1595 28.4901ZM18.6112 17.1307L18.1639 18.0251L18.1639 18.0251L18.6112 17.1307ZM16.6969 17.1307L17.4041 17.8377L17.4041 17.8377L16.6969 17.1307ZM15.9312 36.1482H14.9312V36.5038L15.1558 36.7796L15.9312 36.1482ZM20.7276 40.4123L20.1527 41.2305L20.7276 40.4123ZM22.4397 41.6365L23.3287 41.1787L23.2214 40.9703L23.0327 40.8313L22.4397 41.6365ZM114.242 23.4375L114.726 24.3125V24.3125L114.242 23.4375ZM113.784 23.6894L113.304 22.812L112.73 23.126L112.788 23.778L113.784 23.6894ZM114.534 23.2761L115.018 24.1511L115.601 23.8283L115.528 23.1657L114.534 23.2761ZM114.497 22.9448L115.491 22.8343V22.8343L114.497 22.9448ZM113.997 18.4448L113.003 18.5552V18.5552L113.997 18.4448ZM113.956 18.0772L114.95 17.9668L114.868 17.2316L114.141 17.0945L113.956 18.0772ZM113.593 18.0086L113.778 17.026L113.593 18.0086ZM31.429 15.5051L31.571 16.4949L31.429 15.5051ZM30.1347 15.6907L29.9927 14.7008L27.404 15.0721L29.58 16.5227L30.1347 15.6907ZM31.2227 16.416L31.7774 15.584H31.7773L31.2227 16.416ZM41.7226 23.416L42.2774 22.584L42.2773 22.584L41.7226 23.416ZM41.9097 23.5407L41.355 24.3728L41.7291 24.6222L42.1639 24.5079L41.9097 23.5407ZM42.1271 23.4836L41.8729 22.5164L41.8729 22.5164L42.1271 23.4836ZM60.0658 22.1548L60.2613 21.1741L60.2446 21.1708L60.2279 21.168L60.0658 22.1548ZM62.1823 22.6104L62.5508 21.6808L62.4801 21.6528L62.4061 21.6358L62.1823 22.6104ZM67.4535 24.6194L67.8108 23.6854L67.8033 23.6826L67.7958 23.6798L67.4535 24.6194ZM100.289 29.1389L100.067 28.1638L100.063 28.1648L100.289 29.1389ZM103.245 28.34L102.952 27.384L102.947 27.3855L103.245 28.34ZM113.814 24.0229L114.249 24.923L114.871 24.6222L114.81 23.9344L113.814 24.0229ZM15.4467 50.2754L14.5533 50.7246L15.4467 50.2754ZM14.7165 48.8234L15.6099 48.3742L14.1496 45.4703L13.7251 48.6928L14.7165 48.8234ZM58.9467 136.775L59.8401 136.326L58.9467 136.775ZM59.6005 138.075L59.1719 138.979L61.8015 140.226L60.4939 137.626L59.6005 138.075ZM58.2857 137.452L57.8571 138.355H57.8571L58.2857 137.452ZM43.4704 129.164L42.8918 129.98L43.4704 129.164ZM27.6371 114.844L26.9112 115.532L26.9112 115.532L27.6371 114.844ZM27.6118 114.817L26.7934 115.392L26.8355 115.452L26.886 115.505L27.6118 114.817ZM27.5908 114.787L28.4092 114.213L28.4092 114.213L27.5908 114.787ZM14.1967 86.0431L15.1773 85.8471L14.1967 86.0431ZM14.5043 50.4347L13.5128 50.3041L14.5043 50.4347ZM115.996 81.5624L115.004 81.4376L115.996 81.5624ZM116.153 80.3171L117.145 80.442L117.458 77.9514L115.518 79.5442L116.153 80.3171ZM109.591 104.471L110.475 104.937L109.591 104.471ZM92.3416 125.365L91.6584 124.635L92.3416 125.365ZM91.8671 125.809L90.9863 126.282L91.6014 127.427L92.5503 126.539L91.8671 125.809ZM91.5596 125.237L90.6787 125.71V125.71L91.5596 125.237ZM70.0596 85.2367L70.9404 84.7633L70.0596 85.2367ZM69.4075 84.0237L69.7795 83.0954L67.2227 82.0709L68.5267 84.4971L69.4075 84.0237ZM70.686 84.5359L70.314 85.4641H70.314L70.686 84.5359ZM95.4988 90.2315L95.5672 91.2292L95.4988 90.2315ZM115.183 81.1136L114.548 80.3407L115.183 81.1136ZM65.5712 154.114L77.6949 149.136L76.9352 147.286L64.8116 152.264L65.5712 154.114ZM0.00447828 79.5108C1.6403 96.7375 7.11348 111.334 17.5922 123.669C28.0596 135.991 43.4612 145.985 64.8356 154.124L65.5473 152.254C44.3713 144.192 29.2972 134.359 19.1164 122.374C8.947 110.403 3.59962 96.2143 1.99552 79.3217L0.00447828 79.5108ZM3.83413 13.1958C1.0859 39.0138 0.408332 53.5255 0.000124395 79.4005L1.99988 79.4321C2.40736 53.6029 3.08239 39.1529 5.8229 13.4075L3.83413 13.1958ZM9.0755 6.2951C7.68223 7.04685 6.60617 7.80611 5.75893 8.88599C4.91645 9.95981 4.36058 11.2737 3.86594 13.0306L5.79109 13.5726C6.25472 11.9259 6.72231 10.8982 7.33245 10.1205C7.93783 9.34891 8.74354 8.74677 10.0252 8.05524L9.0755 6.2951ZM50.7064 0.43369C34.2463 1.49406 25.1799 2.79218 9.34017 6.19751L9.76053 8.15283C25.507 4.76757 34.4758 3.48342 50.835 2.42955L50.7064 0.43369ZM79.0347 0.433462C69.1706 -0.165938 62.8727 -0.122375 50.725 0.432663L50.8163 2.43058C62.9184 1.87762 69.1415 1.83598 78.9134 2.42978L79.0347 0.433462ZM120.537 5.94333C104.897 2.49617 95.6024 1.46136 79.036 0.43354L78.9122 2.4297C95.4078 3.45314 104.595 4.47758 120.107 7.89645L120.537 5.94333ZM126.514 13.0217C125.966 11.1415 125.334 9.7727 124.393 8.66825C123.454 7.56646 122.274 6.80514 120.782 6.03203L119.862 7.80775C121.275 8.54007 122.183 9.15815 122.87 9.96512C123.555 10.7694 124.086 11.8388 124.594 13.5815L126.514 13.0217ZM130 79.404C129.684 53.5695 128.874 39.0672 126.55 13.2121L124.558 13.3911C126.878 39.1997 127.685 53.6502 128 79.4285L130 79.404ZM117.344 117.339C125.511 104.125 127.999 95.6543 129.992 79.539L128.008 79.2935C126.042 95.186 123.628 103.368 115.643 116.287L117.344 117.339ZM88.4544 143.815C100.974 135.632 107.516 130.147 117.287 117.422L115.7 116.204C106.089 128.721 99.7238 134.06 87.3602 142.141L88.4544 143.815ZM53.0701 76.807L87.0163 143.432L88.7983 142.524L54.8521 75.8991L53.0701 76.807ZM59.5604 72.7102C56.8642 73.4697 55.4782 74.0184 53.3742 75.5434L54.548 77.1627C56.3993 75.8209 57.5459 75.3555 60.1026 74.6353L59.5604 72.7102ZM64.6002 71.8912C62.9905 72.0668 61.6527 72.2124 59.6004 72.6998L60.0626 74.6457C61.9878 74.1885 63.223 74.0533 64.8171 73.8794L64.6002 71.8912ZM64.7087 71.8853H64.7086V73.8853H64.7087V71.8853ZM66.5963 71.6597C65.8527 71.7546 65.2081 71.8249 64.6002 71.8912L64.8172 73.8794C65.4243 73.8132 66.0855 73.7411 66.8494 73.6436L66.5963 71.6597ZM81.6983 75.5879C75.919 73.5766 72.5231 72.3926 66.8509 71.6599L66.5947 73.6434C72.0419 74.3471 75.2654 75.4668 81.0409 77.4768L81.6983 75.5879ZM83.3851 76.1739C82.799 75.971 82.2383 75.7758 81.6983 75.5879L81.0409 77.4768C81.5807 77.6646 82.1429 77.8603 82.7306 78.0638L83.3851 76.1739ZM104.175 75.4065C99.748 76.9156 96.4807 77.7774 93.3688 77.937C90.2803 78.0953 87.278 77.5644 83.3942 76.1771L82.7214 78.0606C86.7745 79.5084 90.0468 80.1099 93.4713 79.9343C96.8724 79.7599 100.357 78.8212 104.82 77.2996L104.175 75.4065ZM115.857 68.4724L103.988 75.4923L105.007 77.2138L116.875 70.1939L115.857 68.4724ZM113.581 34.9236L115.367 69.3849L117.365 69.2814L115.578 34.8201L113.581 34.9236ZM105.035 40.2514L114.989 35.7842L114.17 33.9595L104.216 38.4267L105.035 40.2514ZM87.8609 42.1249C94.8145 42.4477 98.5924 42.0677 104.895 40.302L104.355 38.3761C98.2786 40.0786 94.7159 40.441 87.9537 40.127L87.8609 42.1249ZM78.5653 40.2987C81.9746 41.2977 84.008 41.7152 87.8011 42.1203L88.0135 40.1316C84.34 39.7393 82.4237 39.3452 79.1277 38.3794L78.5653 40.2987ZM66.3771 35.8102L78.5007 40.2774L79.1922 38.4007L67.0686 33.9335L66.3771 35.8102ZM53.6953 32.6714C59.1287 33.4296 61.9395 34.0748 66.3586 35.8031L67.0871 33.9405C62.4844 32.1404 59.5134 31.4639 53.9717 30.6906L53.6953 32.6714ZM35.8395 34.9995C36.1499 35.9501 36.1499 35.9501 36.1499 35.9501C36.15 35.9501 36.15 35.95 36.1501 35.95C36.1504 35.9499 36.1509 35.9498 36.1515 35.9496C36.1528 35.9491 36.1548 35.9485 36.1576 35.9476C36.1632 35.9458 36.1717 35.943 36.1831 35.9393C36.206 35.9319 36.2405 35.9208 36.2859 35.9063C36.3768 35.8772 36.5117 35.8344 36.6858 35.78C37.034 35.6712 37.5388 35.5162 38.1621 35.3325C39.4096 34.9647 41.1282 34.4827 43.0145 34.0248C44.9031 33.5665 46.9466 33.1356 48.847 32.8666C50.7654 32.595 52.4645 32.4996 53.6953 32.6714L53.9717 30.6906C52.4587 30.4794 50.5367 30.6074 48.5667 30.8863C46.5788 31.1677 44.4668 31.6143 42.5428 32.0813C40.6166 32.5488 38.8655 33.04 37.5966 33.4141C36.9617 33.6013 36.4466 33.7594 36.0894 33.871C35.9108 33.9268 35.7716 33.971 35.6766 34.0013C35.6291 34.0165 35.5927 34.0283 35.5679 34.0363C35.5555 34.0403 35.546 34.0434 35.5395 34.0455C35.5363 34.0465 35.5338 34.0473 35.532 34.0479C35.5311 34.0482 35.5305 34.0484 35.53 34.0486C35.5297 34.0487 35.5295 34.0487 35.5294 34.0488C35.5292 34.0488 35.529 34.0489 35.8395 34.9995ZM33.5535 37.0673L36.2334 35.9186L35.4455 34.0804L32.7656 35.2291L33.5535 37.0673ZM32.1595 28.4901V36.1482H34.1595V28.4901H32.1595ZM18.1639 18.0251C18.1191 18.0026 18.0873 17.9821 18.0843 17.9802C18.0791 17.977 18.0753 17.9745 18.0732 17.9731C18.0711 17.9717 18.0697 17.9707 18.0693 17.9705C18.0692 17.9704 18.075 17.9744 18.089 17.9845C18.1162 18.0042 18.1579 18.0351 18.2156 18.0785C18.3299 18.1645 18.4932 18.2891 18.7 18.4481C19.1128 18.7656 19.6903 19.2134 20.3778 19.7485C21.7524 20.8185 23.562 22.2337 25.3644 23.6455C27.1666 25.0572 28.961 26.4649 30.3048 27.5198C30.9767 28.0472 31.5359 28.4864 31.9272 28.7937C32.1228 28.9473 32.2764 29.068 32.3812 29.1503C32.4335 29.1914 32.4736 29.223 32.5007 29.2442C32.5142 29.2548 32.5244 29.2629 32.5313 29.2683C32.5347 29.271 32.5373 29.273 32.5391 29.2744C32.5399 29.275 32.5406 29.2756 32.541 29.2759C32.5412 29.2761 32.5414 29.2762 32.5415 29.2763C32.5416 29.2764 32.5416 29.2764 33.1595 28.4901C33.7774 27.7038 33.7773 27.7038 33.7772 27.7037C33.7771 27.7036 33.777 27.7035 33.7767 27.7033C33.7763 27.703 33.7757 27.7025 33.7748 27.7018C33.773 27.7004 33.7705 27.6984 33.767 27.6957C33.7601 27.6903 33.7499 27.6822 33.7363 27.6716C33.7093 27.6503 33.6691 27.6188 33.6167 27.5776C33.512 27.4953 33.3583 27.3746 33.1626 27.2208C32.7712 26.9134 32.2118 26.4741 31.5397 25.9466C30.1956 24.8915 28.4007 23.4833 26.5977 22.071C24.7949 20.6589 22.9834 19.2422 21.6063 18.1703C20.9179 17.6345 20.3368 17.1839 19.9192 16.8627C19.7107 16.7024 19.5407 16.5726 19.4177 16.4801C19.3566 16.4342 19.3036 16.3947 19.2617 16.3644C19.2412 16.3496 19.2188 16.3336 19.1973 16.3189C19.1955 16.3177 19.133 16.2736 19.0584 16.2363L18.1639 18.0251ZM17.4041 17.8377C17.324 17.9178 17.2475 17.9657 17.2031 17.9907C17.1558 18.0173 17.1165 18.0336 17.0932 18.0425C17.0686 18.0519 17.0498 18.0576 17.0393 18.0605C17.0284 18.0636 17.0214 18.0651 17.0195 18.0656C17.0185 18.0658 17.0454 18.0605 17.1099 18.0542C17.2334 18.0423 17.4107 18.0349 17.6062 18.0349C17.8004 18.0349 17.9895 18.0422 18.1347 18.055C18.2082 18.0615 18.2573 18.0682 18.2839 18.073C18.297 18.0753 18.2952 18.0756 18.2827 18.0721C18.2757 18.0702 18.2284 18.0573 18.1639 18.0251L19.0584 16.2363C18.8904 16.1522 18.7182 16.119 18.6378 16.1046C18.5313 16.0854 18.4179 16.0722 18.3099 16.0627C18.0923 16.0436 17.8427 16.0349 17.6062 16.0349C17.3709 16.0349 17.1255 16.0435 16.918 16.0635C16.817 16.0732 16.7013 16.0878 16.5912 16.112C16.537 16.1239 16.4616 16.1428 16.3801 16.174C16.3217 16.1962 16.1488 16.2645 15.9898 16.4236L17.4041 17.8377ZM16.9312 18.1517C16.9312 18.2467 16.9171 18.3214 16.9069 18.365C16.8962 18.4112 16.884 18.447 16.8757 18.4692C16.8598 18.5121 16.8453 18.5393 16.8425 18.5446C16.8365 18.5559 16.8399 18.5481 16.8622 18.5151C16.9043 18.4527 16.971 18.3628 17.0526 18.259C17.1319 18.1579 17.2157 18.0559 17.2862 17.9727C17.3654 17.8794 17.4049 17.8369 17.4041 17.8377L15.9898 16.4236C15.8806 16.5328 15.6579 16.7968 15.4798 17.0234C15.3859 17.143 15.2852 17.2764 15.2036 17.3975C15.164 17.4562 15.1166 17.5301 15.0752 17.6083C15.0547 17.647 15.0265 17.7039 15.0011 17.7721C14.9824 17.8224 14.9312 17.9655 14.9312 18.1517H16.9312ZM16.9312 36.1482V18.1517H14.9312V36.1482H16.9312ZM21.3025 39.5941C19.5107 38.3351 18.3175 37.4952 16.7067 35.5168L15.1558 36.7796C16.9474 38.98 18.3279 39.9484 20.1527 41.2305L21.3025 39.5941ZM23.0327 40.8313C22.3939 40.3608 21.8222 39.9592 21.3025 39.5941L20.1527 41.2305C20.6733 41.5963 21.2281 41.9861 21.8467 42.4417L23.0327 40.8313ZM78.2041 147.753L23.3287 41.1787L21.5506 42.0942L76.426 148.669L78.2041 147.753ZM113.758 22.5625C113.606 22.6464 113.455 22.7296 113.304 22.812L114.264 24.5669C114.417 24.4828 114.572 24.398 114.726 24.3125L113.758 22.5625ZM114.05 22.4011L113.758 22.5625L114.726 24.3125L115.018 24.1511L114.05 22.4011ZM113.503 23.0552L113.54 23.3865L115.528 23.1657L115.491 22.8343L113.503 23.0552ZM113.003 18.5552L113.503 23.0552L115.491 22.8343L114.991 18.3343L113.003 18.5552ZM112.962 18.1876L113.003 18.5552L114.991 18.3344L114.95 17.9668L112.962 18.1876ZM113.407 18.9913L113.771 19.0599L114.141 17.0945L113.778 17.026L113.407 18.9913ZM31.571 16.4949C62.5364 12.0541 80.4691 12.7806 113.407 18.9913L113.778 17.026C80.6521 10.7798 62.4967 10.0393 31.2871 14.5152L31.571 16.4949ZM30.2766 16.6806L31.571 16.4949L31.2871 14.5152L29.9927 14.7008L30.2766 16.6806ZM31.7773 15.584L30.6894 14.8586L29.58 16.5227L30.668 17.2481L31.7773 15.584ZM42.2773 22.584L31.7774 15.584L30.6679 17.2481L41.1679 24.2481L42.2773 22.584ZM42.4644 22.7087L42.2774 22.584L41.1679 24.2481L41.355 24.3728L42.4644 22.7087ZM41.8729 22.5164L41.6555 22.5736L42.1639 24.5079L42.3814 24.4507L41.8729 22.5164ZM60.2279 21.168C53.6369 20.0857 48.8761 20.6755 41.8729 22.5164L42.3814 24.4507C49.2173 22.6537 53.6798 22.1195 59.9038 23.1416L60.2279 21.168ZM59.8703 23.1355C60.5397 23.269 61.234 23.4187 61.9586 23.5851L62.4061 21.6358C61.6652 21.4657 60.952 21.3118 60.2613 21.1741L59.8703 23.1355ZM67.7958 23.6798C66.1186 23.0687 64.3726 22.4028 62.5508 21.6808L61.8139 23.5401C63.651 24.2681 65.4144 24.9407 67.1111 25.559L67.7958 23.6798ZM67.0961 25.5534C81.7663 31.1661 91.2533 32.2664 100.516 30.1129L100.063 28.1648C91.3415 30.1925 82.2882 29.2244 67.8108 23.6854L67.0961 25.5534ZM102.947 27.3855C101.991 27.6842 101.033 27.944 100.067 28.1638L100.512 30.1139C101.53 29.8819 102.539 29.6082 103.543 29.2945L102.947 27.3855ZM103.538 29.296C107.001 28.2336 110.485 26.7453 114.249 24.923L113.378 23.1228C109.659 24.9231 106.277 26.3636 102.952 27.384L103.538 29.296ZM114.81 23.9344L114.78 23.6009L112.788 23.778L112.818 24.1114L114.81 23.9344ZM16.3401 49.8261L15.6099 48.3742L13.8231 49.2727L14.5533 50.7246L16.3401 49.8261ZM59.8401 136.326L16.3401 49.8261L14.5533 50.7246L58.0533 137.225L59.8401 136.326ZM60.4939 137.626L59.8401 136.326L58.0533 137.225L58.7071 138.525L60.4939 137.626ZM57.8571 138.355L59.1719 138.979L60.0291 137.172L58.7143 136.548L57.8571 138.355ZM42.8918 129.98C47.6238 133.337 52.1722 135.658 57.8571 138.355L58.7143 136.548C53.054 133.863 48.6342 131.601 44.049 128.348L42.8918 129.98ZM26.9112 115.532C33.2952 122.268 38.1617 126.624 42.8918 129.98L44.049 128.348C39.4632 125.095 34.6963 120.839 28.3629 114.156L26.9112 115.532ZM26.886 115.505L26.9112 115.532L28.363 114.156L28.3377 114.13L26.886 115.505ZM26.7723 115.362L26.7934 115.392L28.4303 114.243L28.4092 114.213L26.7723 115.362ZM13.2161 86.239C15.2214 96.2766 19.5594 105.088 26.7723 115.362L28.4092 114.213C21.2945 104.079 17.1107 95.5243 15.1773 85.8471L13.2161 86.239ZM13.5128 50.3041C11.5608 65.1221 11.2166 76.2306 13.2161 86.239L15.1773 85.8471C13.2421 76.1602 13.5535 65.3088 15.4957 50.5653L13.5128 50.3041ZM13.7251 48.6928L13.5128 50.3041L15.4957 50.5653L15.708 48.954L13.7251 48.6928ZM116.988 81.6873L117.145 80.442L115.161 80.1923L115.004 81.4376L116.988 81.6873ZM110.475 104.937C114.095 98.0705 115.829 90.8995 116.988 81.6873L115.004 81.4376C113.86 90.5318 112.168 97.4368 108.706 104.004L110.475 104.937ZM93.0247 126.095C101.426 118.237 106.862 111.791 110.475 104.937L108.706 104.004C105.242 110.576 99.9858 116.845 91.6584 124.635L93.0247 126.095ZM92.5503 126.539L93.0247 126.095L91.6584 124.635L91.184 125.079L92.5503 126.539ZM90.6787 125.71L90.9863 126.282L92.748 125.335L92.4404 124.763L90.6787 125.71ZM69.1788 85.7102L90.6787 125.71L92.4404 124.763L70.9404 84.7633L69.1788 85.7102ZM68.5267 84.4971L69.1788 85.7102L70.9404 84.7633L70.2884 83.5502L68.5267 84.4971ZM71.0579 83.6076L69.7795 83.0954L69.0356 84.9519L70.314 85.4641L71.0579 83.6076ZM95.4303 89.2339C88.9077 89.6813 81.4509 87.7718 71.0579 83.6076L70.314 85.4641C80.7611 89.65 88.5714 91.7091 95.5672 91.2292L95.4303 89.2339ZM114.548 80.3407C107.625 86.0245 101.882 88.7913 95.4303 89.2339L95.5672 91.2292C102.587 90.7477 108.716 87.7163 115.817 81.8864L114.548 80.3407ZM115.518 79.5442L114.548 80.3407L115.817 81.8864L116.787 81.09L115.518 79.5442Z" fill="white"/>
</svg>
