<svg width="32" height="32" viewBox="0 0 32 32" fill="none" xmlns="http://www.w3.org/2000/svg">
<g clip-path="url(#clip0_866_291)">
<path d="M32 0H0V32H32V0Z" fill="#003399"/>
<path fill-rule="evenodd" clip-rule="evenodd" d="M16 23.5603L16.3534 24.6562L17.5049 24.6537L16.5718 25.3285L16.9301 26.4229L16 25.744L15.0698 26.4229L15.4281 25.3285L14.495 24.6537L15.6465 24.6562L16 23.5603ZM11.2527 22.3295L11.6062 23.4254L12.7577 23.4229L11.8246 24.0977L12.1828 25.1921L11.2527 24.5132L10.3226 25.1921L10.6808 24.0977L9.74774 23.4229L10.8993 23.4254L11.2527 22.3295ZM20.7472 22.3119L21.1007 23.4079L22.2522 23.4053L21.3191 24.0802L21.6773 25.1745L20.7472 24.4957L19.8171 25.1745L20.1753 24.0802L19.2422 23.4053L20.3938 23.4079L20.7472 22.3119ZM7.78897 18.857L8.14242 19.9529L9.29394 19.9504L8.36086 20.6252L8.71909 21.7196L7.78897 21.0407L6.85885 21.7196L7.21709 20.6252L6.284 19.9504L7.43553 19.9529L7.78897 18.857ZM24.2197 18.857L24.5732 19.9529L25.7247 19.9504L24.7916 20.6252L25.1499 21.7196L24.2197 21.0407L23.2896 21.7196L23.6479 20.6252L22.7148 19.9504L23.8663 19.9529L24.2197 18.857ZM25.4857 14.1449L25.8391 15.2408L26.9906 15.2383L26.0576 15.9131L26.4158 17.0075L25.4857 16.3286L24.5556 17.0075L24.9138 15.9131L23.9807 15.2383L25.1322 15.2408L25.4857 14.1449ZM6.50546 14.1449L6.8589 15.2408L8.01043 15.2383L7.07734 15.9131L7.43558 17.0075L6.50546 16.3286L5.57534 17.0075L5.93357 15.9131L5.00049 15.2383L6.15201 15.2408L6.50546 14.1449ZM7.78897 9.40642L8.14242 10.5024L9.29394 10.4998L8.36086 11.1747L8.71909 12.269L7.78897 11.5902L6.85885 12.269L7.21709 11.1747L6.284 10.4998L7.43553 10.5024L7.78897 9.40642ZM24.2022 9.40642L24.5556 10.5024L25.7071 10.4998L24.774 11.1747L25.1323 12.269L24.2022 11.5902L23.272 12.269L23.6303 11.1747L22.6972 10.4998L23.8487 10.5024L24.2022 9.40642ZM20.7472 5.97785L21.1007 7.07379L22.2522 7.07127L21.3191 7.74608L21.6773 8.84047L20.7472 8.16159L19.8171 8.84047L20.1753 7.74608L19.2422 7.07127L20.3938 7.07379L20.7472 5.97785ZM11.2527 5.97785L11.6062 7.07379L12.7577 7.07127L11.8246 7.74608L12.1828 8.84047L11.2527 8.16159L10.3226 8.84047L10.6808 7.74608L9.74774 7.07127L10.8993 7.07379L11.2527 5.97785ZM16 4.70312L16.3534 5.79907L17.5049 5.79655L16.5718 6.47136L16.9301 7.56574L16 6.88686L15.0698 7.56574L15.4281 6.47136L14.495 5.79655L15.6465 5.79907L16 4.70312Z" fill="#FFCC00"/>
</g>
<defs>
<clipPath id="clip0_866_291">
<rect width="32" height="32" rx="16" fill="white"/>
</clipPath>
</defs>
</svg>
