<svg width="32" height="32" viewBox="0 0 32 32" fill="none" xmlns="http://www.w3.org/2000/svg">
<path d="M21.3451 13.4999C22.1735 13.4933 22.8397 12.8164 22.8331 11.988C22.8265 11.1596 22.1497 10.4934 21.3213 10.5L21.3451 13.4999ZM12.2725 15.7272C12.8583 16.313 13.808 16.313 14.3938 15.7272C14.9796 15.1415 14.9796 14.1917 14.3938 13.6059L12.2725 15.7272ZM14.3938 10.3939C14.9796 9.80813 14.9796 8.85838 14.3938 8.27259C13.808 7.68681 12.8583 7.68681 12.2725 8.27259L14.3938 10.3939ZM10.7624 13.5839L21.3451 13.4999L21.3213 10.5L10.7386 10.584L10.7624 13.5839ZM14.3938 13.6059L12.4343 11.6464L10.313 13.7677L12.2725 15.7272L14.3938 13.6059ZM12.4343 12.3535L14.3938 10.3939L12.2725 8.27259L10.313 10.2322L12.4343 12.3535ZM12.4343 11.6464C12.6295 11.8416 12.6295 12.1582 12.4343 12.3535L10.313 10.2322C9.33664 11.2085 9.33664 12.7914 10.313 13.7677L12.4343 11.6464Z" fill="url(#paint0_linear_850_512)"/>
<path d="M10.6549 17.1666C9.82652 17.1732 9.1603 17.8501 9.16688 18.6785C9.17345 19.5069 9.85034 20.1731 10.6787 20.1665L10.6549 17.1666ZM19.7275 14.9393C19.1417 14.3535 18.192 14.3535 17.6062 14.9393C17.0204 15.525 17.0204 16.4748 17.6062 17.0606L19.7275 14.9393ZM17.6062 20.2726C17.0204 20.8584 17.0204 21.8081 17.6062 22.3939C18.192 22.9797 19.1417 22.9797 19.7275 22.3939L17.6062 20.2726ZM21.2376 17.0826L10.6549 17.1666L10.6787 20.1665L21.2614 20.0825L21.2376 17.0826ZM17.6062 17.0606L19.5657 19.0201L21.687 16.8988L19.7275 14.9393L17.6062 17.0606ZM19.5657 18.313L17.6062 20.2726L19.7275 22.3939L21.687 20.4344L19.5657 18.313ZM19.5657 19.0201C19.3705 18.8249 19.3705 18.5083 19.5657 18.313L21.687 20.4344C22.6634 19.458 22.6634 17.8751 21.687 16.8988L19.5657 19.0201Z" fill="url(#paint1_linear_850_512)"/>
<path d="M6.6665 28.3334V3.66675C6.6665 3.11446 7.11422 2.66675 7.6665 2.66675H24.3332C24.8855 2.66675 25.3332 3.11446 25.3332 3.66675V28.3334C25.3332 28.8857 24.8855 29.3334 24.3332 29.3334H7.6665C7.11422 29.3334 6.6665 28.8857 6.6665 28.3334Z" stroke="url(#paint2_linear_850_512)" stroke-width="3" stroke-linejoin="round"/>
<defs>
<linearGradient id="paint0_linear_850_512" x1="10.6665" y1="9.33325" x2="20.1158" y2="16.3143" gradientUnits="userSpaceOnUse">
<stop stop-color="#0039AC"/>
<stop offset="1" stop-color="#056BF0"/>
</linearGradient>
<linearGradient id="paint1_linear_850_512" x1="21.3335" y1="21.3333" x2="11.8842" y2="14.3522" gradientUnits="userSpaceOnUse">
<stop stop-color="#0039AC"/>
<stop offset="1" stop-color="#056BF0"/>
</linearGradient>
<linearGradient id="paint2_linear_850_512" x1="6.6665" y1="2.66675" x2="30.6265" y2="8.86227" gradientUnits="userSpaceOnUse">
<stop stop-color="#0039AC"/>
<stop offset="1" stop-color="#056BF0"/>
</linearGradient>
</defs>
</svg>
